<svg width="753" height="154" viewBox="0 0 753 154" fill="none" xmlns="http://www.w3.org/2000/svg">
<path d="M628.96 142C632.252 142 634.92 144.669 634.92 147.96C634.92 151.252 632.252 153.92 628.96 153.92C625.668 153.92 623 151.252 623 147.96C623 144.669 625.668 142 628.96 142ZM135.11 34.0197C142.841 33.8595 150.449 35.9632 157 40.0705C163.063 43.8634 167.92 49.3056 171 55.7599V35.6799H182.81V127.79H171V107.55C167.909 114.018 163.056 119.484 157 123.32C150.461 127.498 142.829 129.641 135.07 129.48C122.257 129.48 111.63 124.923 103.19 115.81C94.7571 106.703 90.5401 95.1001 90.54 81.0002C90.54 66.9002 94.7304 55.5401 103.11 46.9201C111.49 38.3202 122.157 34.0197 135.11 34.0197ZM375.21 34.0002C388.543 34.0002 399.143 38.1033 407.01 46.3098C414.876 54.5164 418.81 64.6965 418.81 76.8498C418.827 79.8994 418.603 82.9459 418.14 85.9601H342.23C342.677 96.5267 345.88 104.86 351.84 110.96C357.8 117.06 365.337 120.074 374.45 120C381.53 120 387.573 118.37 392.58 115.11C397.38 112.125 401.047 107.625 403 102.32H415.65C412.677 110.107 407.52 116.87 400.8 121.8C393.913 126.92 385.13 129.48 374.45 129.48C361.29 129.48 350.607 125.094 342.4 116.32C334.194 107.547 330.087 95.9896 330.08 81.6496C330.08 67.3098 334.271 55.7837 342.65 47.0705C351.03 38.3572 361.883 34.0002 375.21 34.0002ZM12.6104 50.7004C18.7903 39.5671 28.9665 34.0003 43.1396 34.0002C53.373 34.0002 61.9203 37.3335 68.7803 44.0002C75.6401 50.6668 79.0703 60.3337 79.0703 73.0002L81.5498 127.82H64.3398L67.4297 75.1896C67.4296 65.0699 64.9831 57.3669 60.0898 52.0803C55.1965 46.7936 48.5 44.1403 40 44.1203C31.5067 44.1203 24.8164 46.7633 19.9297 52.05C15.0431 57.3367 12.5965 65.0404 12.5898 75.1603V127.79H0.799805V3.00018H12.6104V50.7004ZM241.35 48.7902H238C229.9 48.7902 223.69 48.5101 219.36 52.8898C215.03 57.2698 212.86 64.8102 212.86 75.5002V127.79H201V35.6799H212.84V50.8703C217.9 39.6237 227.403 34.0003 241.35 34.0002V48.7902ZM293.82 49.4103H290.44C282.34 49.4103 276.13 48.5098 271.8 52.8898C267.47 57.2698 265.31 64.8102 265.31 75.5002V127.79H253.5V35.6799H265.31V50.8703C270.37 39.6236 279.874 34.0002 293.82 34.0002V49.4103ZM317.81 127.79H306V35.6799H317.81V127.79ZM446.48 35.6799H472V45.0002H446.48V106C446.48 110.607 447.38 113.84 449.18 115.7C450.98 117.56 454.183 118.486 458.79 118.48H472V127.76H456.26C441.867 127.76 434.67 120.507 434.67 106V45.0002H421.85V35.7199H434.67V12.5705H446.48V35.6799ZM541.396 35.7219C551.964 35.722 560.528 43.3744 560.528 61.2307C560.528 99.4947 526.637 124.822 506.776 124.822C494.204 124.822 485.458 117.169 485.458 99.3127C485.458 65.0572 516.798 35.7219 541.396 35.7219ZM599.511 35.5392C605.341 35.5392 610.626 37.9082 612.812 40.4592C608.804 45.0143 607.346 47.565 604.795 55.0353H604.249C602.973 47.565 595.867 43.7385 589.308 43.7385C583.112 43.7385 577.1 47.3833 577.1 54.4894C577.1 69.7948 604.431 78.9054 604.431 95.8508C604.431 107.877 591.676 124.822 575.095 124.822C567.807 124.822 561.976 120.085 554.323 114.801C556.692 110.792 558.879 104.961 560.519 96.7619H561.064C562.704 109.152 573.091 118.263 583.841 118.263C590.582 118.263 595.32 114.072 595.32 106.055C595.32 90.0205 569.811 80.9096 569.811 64.5109C569.811 50.8453 583.112 35.5395 599.511 35.5392ZM665.065 35.7219C673.812 35.7219 678.549 40.0947 678.549 46.1076C678.549 57.7691 661.421 75.808 625.344 82.0031C624.068 86.7403 623.521 91.4775 623.521 95.6682C623.521 106.783 627.895 114.983 638.646 114.983C646.48 114.982 656.684 111.885 665.977 97.3088L666.888 98.2199C654.315 119.356 638.827 124.822 629.534 124.822C616.598 124.822 610.949 115.347 610.949 102.41C610.949 76.3543 634.272 35.7219 665.065 35.7219ZM706.211 36.4504C701.109 57.0401 694.914 82.732 692.181 95.1223C701.655 77.2659 729.533 36.4513 742.652 36.4504C745.385 36.4504 748.483 38.0904 748.483 44.8322C748.483 48.112 747.937 52.8496 746.661 59.2267C743.928 73.0747 737.915 96.0332 737.915 106.419C737.915 108.97 738.644 109.881 739.92 109.881C741.742 109.881 746.844 105.69 751.398 97.3088L752.492 98.0373C743.746 113.889 730.81 124.822 724.25 124.822C722.063 124.822 720.423 123.546 720.423 119.72C720.423 114.8 727.894 89.8375 732.267 69.2482C733.542 63.0533 734.636 57.7693 734.636 54.4894C734.636 50.8452 733.724 49.3869 731.355 49.3869C726.618 49.3873 719.876 57.5868 711.859 68.7014C700.016 85.2825 689.266 100.77 689.266 116.805C689.266 119.538 690.177 121.36 692.728 122.453V123.364C689.812 123.182 686.896 123 680.154 123C676.328 123 673.595 123.182 671.591 123.364V122.453C678.697 118.991 677.239 113.707 688.536 61.4133C688.718 60.6844 689.266 58.3154 689.266 56.4933C689.266 55.0357 688.901 53.7601 687.443 53.7599C686.168 53.7599 685.074 54.6711 680.884 57.2219L679.973 56.1291C693.638 47.7474 700.927 41.0054 705.3 35.9035L706.211 36.4504ZM136.79 44.1398C132.3 44.0712 127.843 44.9229 123.694 46.6428C119.546 48.3626 115.794 50.9143 112.67 54.1398C106.003 60.8065 102.686 69.7767 102.72 81.05C102.753 92.3233 106.086 101.543 112.72 108.71C119.386 115.863 127.427 119.437 136.84 119.43C141.373 119.481 145.866 118.579 150.028 116.782C154.19 114.986 157.929 112.334 161 109C167.667 102.087 171 93.0066 171 81.7599C171 70.5133 167.667 61.4299 161 54.5099C157.912 51.1867 154.163 48.547 149.993 46.7609C145.823 44.9749 141.326 44.0819 136.79 44.1398ZM529.917 42.6457C508.598 42.6457 498.395 74.8969 498.395 92.9357C498.395 109.517 506.958 117.898 517.162 117.898C529.37 117.898 547.773 101.863 547.773 68.1545C547.773 51.2092 539.574 42.6457 529.917 42.6457ZM658.688 39.3654C645.205 39.3654 631.357 60.1379 625.891 79.8166C652.493 75.4435 666.159 56.6752 666.159 46.2892C666.159 42.0987 663.79 39.3655 658.688 39.3654ZM374.7 43.4699C365.647 43.4699 358.113 46.4236 352.1 52.3303C346.086 58.2369 342.797 66.3637 342.23 76.7101L406.67 76.6799C406.67 66.5599 403.603 58.4899 397.47 52.4699C391.336 46.4501 383.747 43.45 374.7 43.4699ZM312.12 0.929871C313.252 0.906211 314.377 1.11925 315.422 1.55487C316.467 1.99051 317.41 2.63944 318.19 3.46014C318.989 4.27163 319.616 5.23457 320.037 6.29218C320.458 7.35005 320.662 8.48206 320.64 9.6203C320.662 10.7584 320.458 11.8897 320.037 12.9474C319.616 14.0053 318.989 14.9688 318.19 15.7805C317.412 16.6031 316.468 17.2529 315.423 17.6887C314.377 18.1243 313.252 18.3359 312.12 18.3098C309.815 18.3098 307.605 17.3944 305.976 15.7648C304.346 14.1352 303.43 11.9249 303.43 9.6203C303.43 7.31557 304.346 5.10448 305.976 3.47479C307.605 1.84535 309.816 0.929871 312.12 0.929871Z" fill="#D61C27"/>
</svg>
