<svg width="524" height="524" viewBox="0 0 524 524" fill="none" xmlns="http://www.w3.org/2000/svg">
<path d="M189.922 141.816C210.997 141.816 229.862 146.235 246.518 155.073C263.514 163.911 276.77 177.507 286.288 195.863C296.145 213.878 301.074 235.972 301.074 262.146V425.304H265.893V266.225C265.893 235.972 258.245 212.858 242.949 196.882C227.993 180.906 207.428 172.918 181.255 172.918C154.401 172.918 132.987 181.416 117.011 198.412C101.035 215.408 93.0469 240.391 93.0469 273.363V425.304H57.356V48H93.0469V194.333C101.885 177.677 114.801 164.76 131.797 155.583C149.133 146.405 168.508 141.816 189.922 141.816Z" fill="#D61C27"/>
<path d="M186.072 388.283C154.55 270.493 235.417 140.754 320.076 118.098C356.448 108.365 392.964 126.792 409.395 188.194C444.606 319.768 351.271 438.073 282.917 456.365C239.647 467.945 202.504 449.685 186.072 388.283ZM286.94 152.479C213.569 172.114 208.129 292.411 224.728 354.439C239.986 411.455 277.173 432.388 312.291 422.991C354.306 411.747 402.889 339.661 371.87 223.75C356.276 165.481 320.176 143.585 286.94 152.479Z" fill="#D61C27"/>
</svg>
