<svg width="340" height="340" viewBox="0 0 340 340" fill="none" xmlns="http://www.w3.org/2000/svg">
<path d="M135.9 79.274C153.708 79.274 169.649 83.0079 183.723 90.4758C198.084 97.9436 209.286 109.433 217.328 124.943C225.658 140.166 229.822 158.835 229.822 180.952V318.819H200.095V184.398C200.095 158.835 193.632 139.304 180.707 125.804C168.069 112.305 150.692 105.555 128.576 105.555C105.885 105.555 87.7898 112.736 74.2903 127.097C60.7907 141.458 54.0409 162.569 54.0409 190.43V318.819H23.8823V0H54.0409V123.65C61.5088 109.576 72.4233 98.6617 86.7845 90.9066C101.433 83.1515 117.805 79.274 135.9 79.274Z" fill="#D61C27"/>
<path d="M117.34 272.594C117.34 182.078 200.153 104.562 265.151 104.562C293.076 104.562 315.705 124.783 315.705 171.967C315.705 273.076 226.152 340 173.672 340C140.45 340 117.34 319.778 117.34 272.594ZM234.818 122.857C178.486 122.857 151.524 208.077 151.524 255.743C151.524 299.557 174.153 321.704 201.116 321.704C233.374 321.704 282.002 279.335 282.002 190.263C282.002 145.486 260.336 122.857 234.818 122.857Z" fill="#D61C27"/>
</svg>
