<svg width="340" height="340" viewBox="0 0 340 340" fill="none" xmlns="http://www.w3.org/2000/svg">
<path d="M88.501 109.884C101.953 109.884 113.995 112.705 124.627 118.346C135.475 123.987 143.937 132.666 150.012 144.382C156.304 155.882 159.451 169.985 159.451 186.692V290.838H136.994V189.295C136.994 169.985 132.112 155.231 122.349 145.033C112.802 134.836 99.675 129.737 82.9683 129.737C65.8276 129.737 52.1584 135.161 41.9607 146.01C31.7631 156.858 26.6643 172.806 26.6643 193.852V290.838H3.88232V50H26.6643V143.406C32.3055 132.774 40.5504 124.53 51.399 118.671C62.4645 112.813 74.8319 109.884 88.501 109.884Z" fill="#D61C27"/>
<path d="M186.481 239.919C186.481 171.543 249.038 112.986 298.138 112.986C319.233 112.986 336.327 128.262 336.327 163.905C336.327 240.283 268.678 290.838 229.034 290.838C203.939 290.838 186.481 275.562 186.481 239.919ZM275.225 126.807C232.671 126.807 212.304 191.183 212.304 227.19C212.304 260.287 229.398 277.017 249.765 277.017C274.133 277.017 310.868 245.011 310.868 177.726C310.868 143.901 294.501 126.807 275.225 126.807Z" fill="#D61C27"/>
</svg>
